<svg xmlns="http://www.w3.org/2000/svg" xmlns:xlink="http://www.w3.org/1999/xlink" width="500" zoomAndPan="magnify" viewBox="0 0 375 374.999991" height="500" preserveAspectRatio="xMidYMid meet" version="1.0"><defs><clipPath id="d3afc61758"><path d="M 0 0 L 374.710938 0 L 374.710938 375 L 0 375 Z M 0 0 " clip-rule="nonzero"/></clipPath><clipPath id="7f21ce2dac"><path d="M 27.460938 0 L 346.960938 0 C 362.289062 0 374.710938 12.425781 374.710938 27.75 L 374.710938 347.25 C 374.710938 362.574219 362.289062 375 346.960938 375 L 27.460938 375 C 12.136719 375 -0.289062 362.574219 -0.289062 347.25 L -0.289062 27.75 C -0.289062 12.425781 12.136719 0 27.460938 0 Z M 27.460938 0 " clip-rule="nonzero"/></clipPath></defs><g clip-path="url(#d3afc61758)"><g clip-path="url(#7f21ce2dac)"><path fill="#0d9488" d="M -0.289062 0 L 374.710938 0 L 374.710938 375 L -0.289062 375 Z M -0.289062 0 " fill-opacity="1" fill-rule="nonzero"/></g></g><path fill="#ffffff" d="M 43.558594 197.003906 C 42.933594 196.378906 42.378906 195.699219 41.886719 194.964844 C 41.394531 194.234375 40.980469 193.457031 40.644531 192.644531 C 40.304688 191.828125 40.050781 190.988281 39.878906 190.121094 C 39.707031 189.253906 39.621094 188.382812 39.621094 187.5 C 39.621094 186.617188 39.707031 185.742188 39.878906 184.875 C 40.050781 184.011719 40.304688 183.171875 40.644531 182.355469 C 40.980469 181.539062 41.394531 180.765625 41.886719 180.03125 C 42.378906 179.296875 42.933594 178.617188 43.558594 177.996094 L 97.332031 124.222656 C 97.953125 123.582031 98.628906 123.003906 99.363281 122.5 C 100.097656 121.992188 100.875 121.5625 101.695312 121.210938 C 102.515625 120.855469 103.363281 120.589844 104.234375 120.40625 C 105.109375 120.222656 105.992188 120.125 106.882812 120.117188 C 107.777344 120.109375 108.660156 120.191406 109.539062 120.359375 C 110.414062 120.527344 111.265625 120.78125 112.089844 121.121094 C 112.917969 121.457031 113.703125 121.875 114.445312 122.367188 C 115.1875 122.863281 115.875 123.425781 116.507812 124.054688 C 117.136719 124.6875 117.699219 125.375 118.195312 126.117188 C 118.6875 126.859375 119.105469 127.644531 119.445312 128.472656 C 119.78125 129.296875 120.035156 130.148438 120.203125 131.023438 C 120.371094 131.902344 120.453125 132.785156 120.445312 133.679688 C 120.4375 134.570312 120.339844 135.453125 120.15625 136.328125 C 119.972656 137.199219 119.707031 138.046875 119.351562 138.867188 C 119 139.6875 118.570312 140.464844 118.0625 141.199219 C 117.558594 141.933594 116.980469 142.609375 116.339844 143.230469 L 72.074219 187.496094 L 116.339844 231.761719 C 116.980469 232.382812 117.558594 233.058594 118.0625 233.792969 C 118.570312 234.527344 119 235.304688 119.351562 236.125 C 119.707031 236.945312 119.972656 237.792969 120.15625 238.667969 C 120.339844 239.539062 120.4375 240.421875 120.445312 241.316406 C 120.453125 242.207031 120.371094 243.09375 120.203125 243.96875 C 120.035156 244.84375 119.78125 245.695312 119.441406 246.523438 C 119.105469 247.347656 118.6875 248.132812 118.195312 248.875 C 117.699219 249.621094 117.136719 250.308594 116.507812 250.9375 C 115.875 251.570312 115.1875 252.132812 114.445312 252.625 C 113.703125 253.121094 112.917969 253.535156 112.089844 253.875 C 111.265625 254.210938 110.414062 254.464844 109.539062 254.632812 C 108.660156 254.800781 107.777344 254.882812 106.882812 254.875 C 105.992188 254.867188 105.109375 254.769531 104.234375 254.585938 C 103.363281 254.402344 102.515625 254.136719 101.695312 253.785156 C 100.875 253.433594 100.097656 253.003906 99.363281 252.496094 C 98.628906 251.988281 97.953125 251.414062 97.332031 250.769531 Z M 277.65625 124.222656 C 277.039062 123.582031 276.359375 123.003906 275.625 122.5 C 274.890625 121.992188 274.113281 121.5625 273.292969 121.210938 C 272.472656 120.855469 271.625 120.589844 270.753906 120.40625 C 269.878906 120.222656 268.996094 120.125 268.105469 120.117188 C 267.210938 120.109375 266.328125 120.191406 265.449219 120.359375 C 264.574219 120.527344 263.722656 120.78125 262.898438 121.121094 C 262.070312 121.457031 261.285156 121.875 260.542969 122.367188 C 259.800781 122.863281 259.113281 123.425781 258.480469 124.054688 C 257.851562 124.6875 257.289062 125.375 256.792969 126.117188 C 256.300781 126.859375 255.882812 127.644531 255.546875 128.472656 C 255.207031 129.296875 254.953125 130.148438 254.785156 131.023438 C 254.617188 131.902344 254.539062 132.785156 254.546875 133.679688 C 254.554688 134.570312 254.648438 135.453125 254.832031 136.328125 C 255.015625 137.199219 255.285156 138.046875 255.636719 138.867188 C 255.988281 139.6875 256.417969 140.464844 256.925781 141.199219 C 257.433594 141.933594 258.007812 142.609375 258.648438 143.230469 L 302.914062 187.496094 L 258.648438 231.761719 C 258.007812 232.382812 257.433594 233.058594 256.925781 233.792969 C 256.417969 234.527344 255.988281 235.304688 255.636719 236.125 C 255.285156 236.945312 255.015625 237.792969 254.832031 238.667969 C 254.648438 239.539062 254.554688 240.421875 254.546875 241.316406 C 254.539062 242.207031 254.617188 243.09375 254.785156 243.96875 C 254.953125 244.84375 255.207031 245.695312 255.546875 246.523438 C 255.882812 247.347656 256.300781 248.132812 256.792969 248.875 C 257.289062 249.621094 257.851562 250.308594 258.480469 250.9375 C 259.113281 251.570312 259.800781 252.132812 260.542969 252.625 C 261.285156 253.121094 262.070312 253.535156 262.898438 253.875 C 263.722656 254.210938 264.574219 254.464844 265.453125 254.632812 C 266.328125 254.800781 267.210938 254.882812 268.105469 254.875 C 268.996094 254.867188 269.878906 254.769531 270.753906 254.585938 C 271.628906 254.402344 272.472656 254.136719 273.292969 253.785156 C 274.113281 253.433594 274.890625 253.003906 275.625 252.496094 C 276.359375 251.988281 277.039062 251.414062 277.65625 250.769531 L 331.429688 197 C 332.054688 196.375 332.613281 195.695312 333.101562 194.960938 C 333.59375 194.230469 334.007812 193.453125 334.34375 192.640625 C 334.683594 191.824219 334.9375 190.984375 335.109375 190.117188 C 335.28125 189.25 335.367188 188.378906 335.367188 187.496094 C 335.367188 186.613281 335.28125 185.738281 335.109375 184.871094 C 334.9375 184.007812 334.683594 183.167969 334.34375 182.351562 C 334.007812 181.535156 333.59375 180.761719 333.101562 180.027344 C 332.613281 179.292969 332.054688 178.613281 331.429688 177.992188 Z M 201.339844 76.691406 L 147.570312 291.78125 C 147.367188 292.632812 147.253906 293.496094 147.21875 294.371094 C 147.1875 295.242188 147.242188 296.113281 147.378906 296.976562 C 147.515625 297.839844 147.738281 298.683594 148.039062 299.503906 C 148.339844 300.324219 148.71875 301.109375 149.175781 301.855469 C 149.628906 302.601562 150.152344 303.296875 150.742188 303.941406 C 151.335938 304.589844 151.984375 305.167969 152.6875 305.6875 C 153.390625 306.207031 154.140625 306.652344 154.929688 307.023438 C 155.722656 307.398438 156.542969 307.6875 157.390625 307.902344 C 158.238281 308.113281 159.101562 308.242188 159.976562 308.285156 C 160.847656 308.332031 161.71875 308.289062 162.582031 308.164062 C 163.449219 308.039062 164.292969 307.832031 165.121094 307.539062 C 165.945312 307.25 166.734375 306.882812 167.488281 306.4375 C 168.242188 305.992188 168.945312 305.480469 169.597656 304.898438 C 170.25 304.316406 170.839844 303.675781 171.367188 302.980469 C 171.898438 302.28125 172.351562 301.539062 172.738281 300.753906 C 173.121094 299.96875 173.425781 299.152344 173.648438 298.304688 L 227.421875 83.21875 C 227.648438 82.355469 227.789062 81.480469 227.84375 80.59375 C 227.898438 79.703125 227.863281 78.816406 227.742188 77.933594 C 227.621094 77.054688 227.414062 76.191406 227.121094 75.351562 C 226.828125 74.507812 226.457031 73.707031 226.003906 72.9375 C 225.550781 72.171875 225.027344 71.457031 224.433594 70.792969 C 223.835938 70.128906 223.183594 69.53125 222.46875 69 C 221.753906 68.46875 220.996094 68.007812 220.191406 67.628906 C 219.386719 67.246094 218.554688 66.945312 217.6875 66.730469 C 216.824219 66.515625 215.949219 66.386719 215.058594 66.34375 C 214.167969 66.300781 213.285156 66.347656 212.402344 66.480469 C 211.523438 66.617188 210.664062 66.835938 209.828125 67.140625 C 208.992188 67.445312 208.191406 67.828125 207.433594 68.292969 C 206.671875 68.753906 205.964844 69.289062 205.308594 69.894531 C 204.65625 70.496094 204.066406 71.160156 203.542969 71.878906 C 203.019531 72.601562 202.574219 73.367188 202.203125 74.175781 C 201.832031 74.984375 201.546875 75.824219 201.339844 76.691406 Z M 201.339844 76.691406 " fill-opacity="1" fill-rule="nonzero"/></svg>